<svg xmlns="http://www.w3.org/2000/svg" width="41.657" height="29.887" viewBox="0 0 41.657 29.887"><defs><style>.a{fill:#a5756a;}</style></defs><g transform="translate(0 -58.303)"><g transform="translate(0 58.303)"><path class="a" d="M40.849,60.79H38.1v-.937a.807.807,0,0,0-.581-.807A22.744,22.744,0,0,0,31.7,58.3c-3.23,0-7.63.727-10.884,4.037C17.586,59,13.153,58.3,9.932,58.3a22.744,22.744,0,0,0-5.822.743.807.807,0,0,0-.581.807v.929H.807A.807.807,0,0,0,0,61.59V87.38a.805.805,0,0,0,1.2.7c.081-.04,8.155-4.457,19.427-1.615h.194a.808.808,0,0,0,.194,0C32.322,83.6,40.4,88.01,40.445,88.082a.807.807,0,0,0,1.211-.694V61.6A.807.807,0,0,0,40.849,60.79ZM1.615,86.1V62.405h1.93V82.656a.807.807,0,0,0,.929.807,35.335,35.335,0,0,1,5.047-.4,20.945,20.945,0,0,1,6.9,1.042A29.684,29.684,0,0,0,1.615,86.1Zm7.9-4.643a35.53,35.53,0,0,0-4.393.283V60.492a22.27,22.27,0,0,1,4.788-.533c3.02,0,7.186.694,10.077,3.957l.024,20.114C18.337,82.931,15.059,81.453,9.52,81.453ZM21.632,63.915c2.891-3.23,7.057-3.957,10.077-3.957a22.368,22.368,0,0,1,4.788.533V81.736a35.516,35.516,0,0,0-4.368-.291c-5.507,0-8.793,1.478-10.5,2.576ZM40.034,86.1A29.69,29.69,0,0,0,25.2,84.1a21,21,0,0,1,6.928-1.042,35.325,35.325,0,0,1,5.079.4.807.807,0,0,0,.929-.807V62.405h1.93Z" transform="translate(0 -58.303)"/></g></g></svg>