<svg xmlns="http://www.w3.org/2000/svg" width="32.496" height="33.624" viewBox="0 0 32.496 33.624"><defs><style>.a{fill:#a5756a;}</style></defs><g transform="translate(0)"><path class="a" d="M110.714,68.987a.624.624,0,0,0,.624-.624V66.082c0-.093-.008-.185-.014-.276l.192.192a.624.624,0,0,0,.882,0l.2-.2c-.007.095-.014.19-.014.286v2.282a.624.624,0,0,0,.624.624h2.282a3.96,3.96,0,0,0,3.956-3.955V62.75a.624.624,0,0,0-.624-.624h-2.282a3.925,3.925,0,0,0-1.461.283,3.954,3.954,0,0,0-1.068-3.619L112.4,57.177a.623.623,0,0,0-.882,0L109.9,58.79a3.952,3.952,0,0,0-1.069,3.615,3.922,3.922,0,0,0-1.451-.28H105.1a.624.624,0,0,0-.624.624v2.282a3.96,3.96,0,0,0,3.956,3.955h2.282Zm7.485-5.614v1.658a2.711,2.711,0,0,1-2.708,2.708h-1.658V66.081a2.711,2.711,0,0,1,2.708-2.708Zm-7.415-3.7,1.173-1.173,1.173,1.173a2.712,2.712,0,0,1,0,3.83l-1.173,1.173L110.784,63.5A2.712,2.712,0,0,1,110.784,59.672Zm-5.06,5.36V63.373h1.658a2.711,2.711,0,0,1,2.708,2.708V67.74h-1.658A2.712,2.712,0,0,1,105.724,65.032Zm0,0" transform="translate(-97.615 -53.251)"/><path class="a" d="M220.324,313.434a1.874,1.874,0,0,0-1.871,1.871H219.7a.624.624,0,1,1,1.248,0H222.2A1.873,1.873,0,0,0,220.324,313.434Zm0,0" transform="translate(-204.106 -292.85)"/><path class="a" d="M296.309,322.934a1.873,1.873,0,0,0-1.871,1.871h1.247a.624.624,0,0,1,1.248,0h1.247A1.873,1.873,0,0,0,296.309,322.934Zm0,0" transform="translate(-275.101 -301.726)"/><path class="a" d="M25.9,18.836l2.153-8.071a.632.632,0,0,0,.021-.161,1.249,1.249,0,0,0-1.248-1.248H25.574a1.24,1.24,0,0,0-.624.172V.624A.624.624,0,0,0,24.326,0H4.994L4.985,0,4.975,0H.624A.624.624,0,0,0,0,.624V29.316a.625.625,0,0,0,.377.573l4.351,1.871a.631.631,0,0,0,.247.051h9.571a11.7,11.7,0,0,0,17.95-9.9v-.065c0-1.862-3.851-2.668-6.6-3.006ZM25.574,10.6H26.8l-2.3,8.611h0a0,0,0,0,1,0,0l-.372,1.428a.624.624,0,0,0,.447.761.651.651,0,0,0,.157.02.624.624,0,0,0,.6-.467l.235-.9c4.258.5,5.675,1.488,5.675,1.786,0,.614-3.562,2.054-10.47,2.054s-10.47-1.44-10.47-2.054,3.562-2.055,10.47-2.055c.369,0,.723.014,1.082.024l-.117.464a.624.624,0,0,0,.453.757.612.612,0,0,0,.153.019.625.625,0,0,0,.6-.472l.306-1.214,2.294-8.6a.652.652,0,0,0,.02-.161ZM4.352,30.24l-3.1-1.335V1.248h3.1Zm8.538.324H5.618V1.248H23.7V12.861l-1.521,5.7c-.46-.014-.927-.024-1.4-.024-4.053,0-11.718.69-11.718,3.3v.065a11.74,11.74,0,0,0,.064,1.219c.013.119.038.235.054.353.037.28.075.559.132.832.032.155.08.3.118.458.058.23.112.46.183.684.057.178.128.35.193.525s.137.382.217.566.176.372.268.556c.081.162.158.326.246.484.1.188.22.368.334.549.092.147.183.294.282.437.121.174.25.341.38.509.111.143.222.285.339.422s.264.3.4.442.279.289.425.429c.066.061.124.13.191.19Zm7.89,1.813a10.409,10.409,0,0,1-5.771-1.742c-.079-.052-.155-.109-.233-.163-.179-.125-.354-.256-.524-.391-.062-.049-.125-.1-.186-.149q-.333-.279-.642-.584c-.038-.038-.075-.077-.112-.115-.2-.207-.4-.419-.583-.642l-.034-.039q-.3-.364-.564-.755l-.063-.095a10.489,10.489,0,0,1-.9-1.648c-.021-.048-.042-.1-.062-.144-.117-.281-.224-.569-.316-.862-.012-.037-.021-.075-.032-.112-.081-.267-.15-.538-.21-.813-.012-.055-.026-.109-.037-.165-.029-.143-.044-.289-.067-.434,2.4,1.244,7.344,1.62,10.332,1.62s7.937-.376,10.332-1.62a10.475,10.475,0,0,1-10.331,8.853Zm0,0"/></g></svg>