<svg xmlns="http://www.w3.org/2000/svg" width="31.536" height="32.113" viewBox="0 0 31.536 32.113"><defs><style>.a{fill:#a5756a;fill-rule:evenodd;}</style></defs><g transform="translate(0 0)"><path class="a" d="M70.38,16.957a16.005,16.005,0,0,0-1.6-4.475l-.006-.011c-.287-.569-.586-1.12-.876-1.656-.946-1.746-1.84-3.4-1.909-4.9C65.828,2.5,67.3,1.157,67.363,1.1a.619.619,0,0,0,.189-.693.63.63,0,0,0-.6-.413h-18.8a.631.631,0,0,0-.6.411.615.615,0,0,0,.187.69c.063.056,1.539,1.4,1.381,4.817-.07,1.5-.963,3.15-1.909,4.9-.29.536-.589,1.087-.876,1.656l-.006.011a15.511,15.511,0,0,0-1.65,4.782c0,.017-.005.035-.007.053a9.775,9.775,0,0,0-.074,1.973,26.449,26.449,0,0,0,.588,3.9.627.627,0,1,0,1.225-.269,25.257,25.257,0,0,1-.561-3.709c-.014-.212-.019-.421-.017-.629l8.917,6.852a4.214,4.214,0,0,0,2.172.822v4.6h-8c-.23-.567-.684-1.723-1.172-3.177a.627.627,0,0,0-1.189.4c.713,2.126,1.339,3.591,1.365,3.652a.628.628,0,0,0,.576.38H66.6a.627.627,0,0,0,.576-.38c.121-.283,2.973-6.989,3.33-12.442a9.878,9.878,0,0,0-.123-2.3c0-.012,0-.023-.006-.034Zm-20-10.98a8.594,8.594,0,0,0-.97-4.722H65.7a8.592,8.592,0,0,0-.97,4.722c.083,1.788,1.043,3.56,2.059,5.436.212.391.424.784.632,1.18-2.28,1.672-5.918,2.659-9.868,2.659s-7.588-.988-9.868-2.659c.207-.4.42-.789.631-1.18,1.016-1.876,1.976-3.649,2.059-5.436ZM45.98,17.1a13.472,13.472,0,0,1,1.143-3.375,18.761,18.761,0,0,0,10.435,2.778,18.763,18.763,0,0,0,10.435-2.778,13.959,13.959,0,0,1,1.086,3.082l-10,7.683a3.125,3.125,0,0,1-3.556-.057Zm23.277,2.1c-.3,4.52-2.468,10.152-3.074,11.65h-8V26.2a3.848,3.848,0,0,0,1.658-.713l9.421-7.239a8.422,8.422,0,0,1-.007.959Zm0,0" transform="translate(-41.789 0)"/><path class="a" d="M242.033,149.34a.627.627,0,0,0,.627-.627V146.8a.627.627,0,0,0-1.254,0v1.91A.627.627,0,0,0,242.033,149.34Zm0,0" transform="translate(-226.265 -137.008)"/><path class="a" d="M3.508,53.257a.627.627,0,1,0,.887.887l1.817-1.817a.623.623,0,0,0,0-.888L4.4,49.62a.627.627,0,0,0-.887.887l.748.747H.627a.627.627,0,1,0,0,1.254H4.256Zm0,0" transform="translate(0 -46.336)"/><path class="a" d="M406.547,51.255h-3.628l.747-.747a.627.627,0,0,0-.887-.887l-1.818,1.818a.635.635,0,0,0-.148.661.676.676,0,0,0,.148.226l1.818,1.818a.627.627,0,0,0,.887-.887l-.748-.748h3.629a.627.627,0,0,0,0-1.254Zm0,0" transform="translate(-375.638 -46.336)"/><path class="a" d="M65.118,396.94a.627.627,0,1,0-.627.627A.628.628,0,0,0,65.118,396.94Zm0,0" transform="translate(-59.858 -371.457)"/></g></svg>